<?xml version="1.0" standalone="no"?>
<!DOCTYPE svg PUBLIC "-//W3C//DTD SVG 20010904//EN"
 "http://www.w3.org/TR/2001/REC-SVG-20010904/DTD/svg10.dtd">
<svg version="1.0" xmlns="http://www.w3.org/2000/svg"
 width="589.000000pt" height="589.000000pt" viewBox="0 0 589.000000 589.000000"
 preserveAspectRatio="xMidYMid meet">
<metadata>
Created by potrace 1.14, written by Peter Selinger 2001-2017
</metadata>
<g transform="translate(0.000000,589.000000) scale(0.100000,-0.100000)"
fill="#000000" stroke="none">
<path d="M1473 5883 c813 -2 2141 -2 2950 0 810 1 145 2 -1478 2 -1622 0
-2285 -1 -1472 -2z"/>
<path d="M3640 5510 c-176 -10 -291 -47 -505 -163 -122 -67 -168 -100 -268
-196 -119 -115 -184 -227 -217 -377 -66 -309 -62 -559 14 -725 13 -30 31 -76
41 -104 23 -69 63 -136 137 -230 79 -100 133 -184 124 -192 -7 -8 -70 12 -219
68 -54 21 -146 52 -205 69 -139 41 -321 100 -447 144 -110 39 -123 41 -177 25
-88 -24 -128 -105 -128 -254 1 -85 2 -92 30 -125 17 -19 30 -39 30 -46 0 -19
75 -91 112 -107 45 -20 132 -52 194 -72 28 -8 60 -22 70 -30 10 -8 31 -15 46
-15 15 0 29 -4 32 -9 3 -5 28 -14 55 -21 27 -6 57 -20 67 -31 9 -11 35 -22 56
-25 21 -4 38 -10 38 -15 0 -5 6 -9 13 -9 15 0 169 -46 202 -60 20 -8 210 -41
330 -57 l60 -8 -3 -45 c-3 -41 -30 -203 -52 -310 -16 -74 -48 -348 -55 -460
-7 -127 -23 -261 -37 -314 -21 -84 -35 -201 -27 -224 13 -33 68 -28 86 8 24
50 66 318 79 505 13 202 26 301 74 565 16 91 33 190 37 220 l8 55 402 0 c362
0 404 2 419 17 20 20 12 63 -13 73 -10 3 -243 10 -518 15 -511 9 -557 13 -735
56 -107 26 -256 78 -410 142 -80 33 -179 70 -220 82 -149 44 -233 102 -259
179 -23 69 -8 180 27 209 26 20 61 14 212 -39 80 -28 215 -71 300 -95 85 -24
164 -48 175 -53 40 -19 192 -74 255 -92 36 -11 79 -24 97 -30 47 -15 461 -28
598 -19 122 9 155 22 155 61 0 44 -17 47 -232 41 -112 -2 -238 -2 -281 2 l-76
8 -49 61 c-26 34 -67 89 -89 122 -23 33 -49 69 -60 80 -52 57 -143 213 -143
247 0 7 -11 37 -25 66 -42 91 -55 161 -56 299 -1 195 41 425 96 528 38 71 69
109 148 184 94 90 151 129 292 199 196 99 287 122 478 122 108 0 258 -24 357
-57 116 -39 320 -185 448 -321 108 -115 143 -180 195 -362 34 -117 41 -179 42
-345 0 -189 -16 -285 -63 -378 -33 -66 -140 -173 -268 -268 -54 -41 -104 -81
-111 -89 -26 -31 -10 -166 61 -540 24 -124 49 -261 55 -305 7 -44 28 -177 47
-295 19 -118 39 -249 45 -290 6 -41 19 -127 29 -190 11 -63 26 -171 35 -240 9
-69 22 -135 31 -147 16 -25 53 -30 72 -11 23 23 19 60 -88 758 -12 79 -57 357
-90 555 -16 94 -40 224 -54 290 -14 66 -32 172 -40 235 l-15 115 31 25 c16 14
83 68 147 121 161 132 213 207 257 374 29 110 27 445 -3 576 -58 249 -125 375
-273 515 -237 224 -380 307 -605 352 -135 27 -179 30 -325 22z"/>
<path d="M2958 4469 c-20 -8 -32 -24 -48 -67 -22 -58 -32 -125 -18 -116 4 3 8
-13 8 -35 0 -47 35 -95 51 -70 7 12 9 12 9 1 0 -23 100 -5 131 24 14 13 31 24
38 24 7 0 9 5 6 10 -4 6 -11 7 -17 4 -7 -5 -9 -1 -5 9 5 12 1 17 -13 17 -24 0
-25 12 -3 68 15 40 15 46 -1 78 -10 23 -29 40 -51 50 -39 16 -49 16 -87 3z"/>
<path d="M3923 4369 c-43 -13 -61 -42 -66 -110 -3 -31 -8 -62 -11 -68 -4 -6
-5 -24 -1 -40 7 -32 46 -47 77 -30 12 6 33 6 60 -2 39 -10 44 -9 57 11 15 23
26 155 17 195 -6 23 -55 55 -83 54 -10 0 -33 -5 -50 -10z"/>
<path d="M3112 3998 c-18 -18 -15 -53 6 -71 10 -9 59 -31 108 -48 151 -53 376
-49 532 9 53 20 76 58 52 87 -16 19 -56 17 -160 -10 -42 -11 -108 -17 -185
-18 -110 -1 -127 2 -210 31 -97 35 -125 38 -143 20z"/>
<path d="M1373 3593 c9 -2 25 -2 35 0 9 3 1 5 -18 5 -19 0 -27 -2 -17 -5z"/>
<path d="M1250 3570 c-8 -5 -31 -10 -50 -10 -31 -1 -27 -4 40 -31 77 -30 167
-37 163 -13 -1 7 23 15 60 19 l62 8 -50 7 c-31 5 -64 3 -86 -5 -19 -6 -44 -8
-55 -4 -10 3 -22 5 -26 2 -4 -2 -12 6 -18 17 -12 22 -18 24 -40 10z m40 -40
c0 -9 -3 -11 -8 -4 -4 6 -16 14 -27 18 l-20 8 20 8 c21 8 35 -4 35 -30z"/>
<path d="M955 3530 c-4 -6 7 -10 27 -10 25 0 29 3 18 10 -19 13 -37 13 -45 0z"/>
<path d="M1108 3523 c7 -3 16 -2 19 1 4 3 -2 6 -13 5 -11 0 -14 -3 -6 -6z"/>
<path d="M1578 3522 c-26 -2 -38 -8 -38 -19 0 -10 6 -14 20 -10 11 3 20 1 20
-4 0 -13 28 -11 32 2 2 6 18 12 36 12 18 1 32 5 32 8 0 9 -56 15 -102 11z"/>
<path d="M890 3510 c-9 -6 -10 -10 -3 -10 6 0 15 5 18 10 8 12 4 12 -15 0z"/>
<path d="M1425 3480 c4 -6 11 -8 16 -5 14 9 11 15 -7 15 -8 0 -12 -5 -9 -10z"/>
<path d="M1520 3480 c0 -5 -11 -10 -24 -10 -14 0 -27 -4 -30 -9 -9 -14 24 -22
46 -10 11 6 27 8 36 4 13 -5 13 -2 -3 15 -20 23 -25 24 -25 10z"/>
<path d="M880 3430 c0 -5 5 -10 10 -10 6 0 10 5 10 10 0 6 -4 10 -10 10 -5 0
-10 -4 -10 -10z"/>
<path d="M820 3395 c-6 -15 -15 -23 -24 -19 -21 8 -26 -8 -10 -30 13 -18 15
-18 32 -3 10 9 19 30 20 47 3 36 -5 39 -18 5z"/>
<path d="M1000 3395 c-26 -7 -49 -9 -54 -4 -17 15 -22 10 -22 -21 0 -31 10
-40 19 -16 3 9 15 12 31 9 15 -3 26 -1 26 5 0 8 26 10 78 7 71 -5 75 -4 47 9
-48 21 -77 24 -125 11z"/>
<path d="M1400 3335 c-102 -18 -219 -39 -260 -46 -41 -7 -81 -17 -87 -24 -10
-8 -7 -46 16 -180 16 -94 34 -201 41 -240 22 -134 60 -351 95 -548 19 -109 35
-208 35 -220 0 -47 11 -51 101 -37 46 7 136 23 199 35 63 13 142 26 175 30
108 13 106 12 99 107 l-6 83 57 100 c31 55 70 121 85 147 16 26 25 50 21 52
-5 3 -46 -2 -93 -11 -132 -25 -131 -26 -153 117 -15 97 -22 121 -37 126 -10 3
-22 3 -28 -1 -12 -7 -226 -45 -257 -45 -15 0 -23 6 -23 17 0 9 44 93 99 187
162 281 161 279 135 369 -6 21 12 22 -214 -18z"/>
<path d="M926 3315 c4 -8 8 -15 10 -15 2 0 4 7 4 15 0 8 -4 15 -10 15 -5 0 -7
-7 -4 -15z"/>
<path d="M799 3293 c-1 -15 -1 -49 1 -75 1 -38 -1 -48 -14 -48 -22 0 -20 -29
2 -37 34 -13 44 -44 11 -36 -24 7 -24 16 -4 -122 2 -11 4 -27 4 -35 2 -30 21
13 21 48 0 18 12 51 26 73 14 23 20 38 13 34 -9 -6 -10 -1 -6 17 5 18 2 28 -8
32 -11 4 -15 20 -15 56 0 27 -4 50 -8 50 -5 0 -7 13 -4 29 2 16 -1 32 -7 35
-7 5 -11 -3 -12 -21z"/>
<path d="M1762 3260 c0 -19 2 -27 5 -17 2 9 2 25 0 35 -3 9 -5 1 -5 -18z"/>
<path d="M751 3234 c0 -11 3 -14 6 -6 3 7 2 16 -1 19 -3 4 -6 -2 -5 -13z"/>
<path d="M862 3190 c0 -14 2 -19 5 -12 2 6 2 18 0 25 -3 6 -5 1 -5 -13z"/>
<path d="M1735 3170 c3 -5 10 -10 16 -10 5 0 9 5 9 10 0 6 -7 10 -16 10 -8 0
-12 -4 -9 -10z"/>
<path d="M881 3154 c0 -11 3 -14 6 -6 3 7 2 16 -1 19 -3 4 -6 -2 -5 -13z"/>
<path d="M1692 3102 c-13 -27 -22 -58 -20 -68 2 -15 -2 -18 -19 -16 -15 2 -23
-2 -23 -11 0 -8 -9 -26 -20 -40 -11 -14 -17 -28 -13 -30 12 -7 53 11 53 23 0
6 6 10 13 9 38 -5 47 21 24 69 -9 18 -6 26 12 46 13 14 21 33 19 46 -2 17 -8
11 -26 -28z"/>
<path d="M974 3073 c0 -11 -6 -17 -16 -17 -10 1 -18 -4 -18 -11 0 -7 -3 -21
-6 -29 -5 -12 -2 -15 10 -10 13 5 16 -1 16 -35 0 -23 4 -41 9 -41 14 0 18 22
10 58 -4 17 -3 35 2 38 12 7 12 64 0 64 -5 0 -8 -8 -7 -17z"/>
<path d="M917 3033 c-4 -3 -7 -18 -6 -32 1 -26 1 -25 10 3 9 31 7 41 -4 29z"/>
<path d="M855 3020 c-3 -5 -1 -10 6 -10 8 0 10 -12 7 -38 -4 -23 -1 -42 7 -49
16 -14 26 3 20 34 -13 62 -16 73 -25 73 -5 0 -12 -4 -15 -10z"/>
<path d="M2620 3020 c-13 -8 -12 -10 3 -10 9 0 17 5 17 10 0 12 -1 12 -20 0z"/>
<path d="M1728 2983 c6 -2 18 -2 25 0 6 3 1 5 -13 5 -14 0 -19 -2 -12 -5z"/>
<path d="M832 2955 c-1 -14 3 -25 8 -25 6 0 10 11 10 25 0 14 -4 25 -8 25 -4
0 -9 -11 -10 -25z"/>
<path d="M920 2896 c0 -14 5 -26 10 -26 6 0 10 9 10 19 0 11 -4 23 -10 26 -6
4 -10 -5 -10 -19z"/>
<path d="M951 2913 c4 -22 -2 -43 -17 -57 -17 -17 -11 -36 12 -36 10 0 14 -13
15 -47 l1 -48 9 40 c9 45 1 142 -12 151 -5 3 -9 2 -8 -3z"/>
<path d="M862 2875 c0 -16 2 -22 5 -12 2 9 2 23 0 30 -3 6 -5 -1 -5 -18z"/>
<path d="M822 2855 c0 -16 2 -22 5 -12 2 9 2 23 0 30 -3 6 -5 -1 -5 -18z"/>
<path d="M902 2860 c0 -14 2 -19 5 -12 2 6 2 18 0 25 -3 6 -5 1 -5 -13z"/>
<path d="M1011 2820 c-1 -27 2 -50 7 -50 15 0 19 21 14 63 -6 53 -18 46 -21
-13z"/>
<path d="M866 2775 c-3 -9 -6 -22 -5 -28 0 -7 5 -1 10 12 5 13 8 26 5 28 -2 2
-6 -3 -10 -12z"/>
<path d="M930 2669 c0 -11 5 -17 10 -14 6 3 10 13 10 21 0 8 -4 14 -10 14 -5
0 -10 -9 -10 -21z"/>
<path d="M936 2631 c-4 -7 -5 -15 -2 -18 9 -9 19 4 14 18 -4 11 -6 11 -12 0z"/>
<path d="M867 2570 c3 -25 7 -47 9 -49 8 -9 2 55 -6 74 -6 13 -7 5 -3 -25z"/>
<path d="M910 2544 c0 -19 4 -44 10 -54 6 -12 7 -33 1 -57 -8 -32 -9 -34 -10
-10 -1 24 -21 41 -21 18 0 -23 22 -170 30 -202 10 -35 10 -35 52 -30 42 6 43
7 43 43 0 34 -2 38 -27 38 -20 0 -28 6 -31 23 -4 18 -4 17 -6 -6 0 -16 -5 -26
-11 -22 -12 7 -13 52 -2 59 8 5 6 201 -3 224 -9 25 -25 11 -25 -24z"/>
<path d="M881 2484 c0 -11 3 -14 6 -6 3 7 2 16 -1 19 -3 4 -6 -2 -5 -13z"/>
<path d="M1081 2475 c0 -16 6 -59 14 -95 l14 -65 -4 78 c-5 78 -25 146 -24 82z"/>
<path d="M1064 2321 c3 -41 10 -79 15 -84 7 -7 9 11 4 59 -8 97 -26 120 -19
25z"/>
<path d="M1131 2173 c-1 -23 3 -44 7 -47 4 -2 6 12 4 32 -5 56 -10 62 -11 15z"/>
<path d="M940 2154 c0 -8 5 -12 10 -9 6 4 8 11 5 16 -9 14 -15 11 -15 -7z"/>
<path d="M2726 2157 c3 -10 9 -15 12 -12 3 3 0 11 -7 18 -10 9 -11 8 -5 -6z"/>
<path d="M1040 2133 c0 -20 3 -24 11 -16 6 6 18 9 27 5 12 -4 14 -1 9 12 -4
10 -7 21 -7 24 0 4 -5 0 -10 -8 -6 -10 -10 -11 -10 -2 0 6 -4 12 -10 12 -5 0
-10 -12 -10 -27z"/>
<path d="M2732 2110 c0 -14 2 -19 5 -12 2 6 2 18 0 25 -3 6 -5 1 -5 -13z"/>
<path d="M1026 1995 c-3 -8 0 -27 6 -41 10 -20 9 -27 -2 -34 -12 -7 -12 -12
-2 -22 19 -19 15 -49 -5 -41 -16 6 -17 5 -3 -11 8 -11 16 -14 18 -7 2 6 12 11
23 11 11 0 19 7 19 16 0 13 7 15 35 10 22 -4 35 -3 35 4 0 5 -13 10 -29 10
-36 0 -62 27 -40 41 12 8 12 10 -1 19 -8 5 -20 10 -27 10 -6 0 -9 8 -6 19 6
23 -13 37 -21 16z"/>
<path d="M976 1981 c-4 -5 -2 -20 3 -33 9 -21 10 -21 10 10 1 32 -3 39 -13 23z"/>
<path d="M1114 1958 c3 -15 2 -30 -4 -33 -15 -9 -12 -25 4 -25 8 0 18 9 21 21
9 26 31 19 27 -9 -4 -26 4 -28 24 -8 12 13 11 17 -7 30 -12 8 -18 19 -15 24 3
5 -3 12 -14 15 -11 3 -20 0 -20 -6 0 -7 -5 -6 -11 3 -8 12 -9 9 -5 -12z"/>
<path d="M1510 1970 c-8 -5 -10 -10 -5 -10 6 0 17 5 25 10 8 5 11 10 5 10 -5
0 -17 -5 -25 -10z"/>
<path d="M2435 1970 c3 -5 8 -10 11 -10 2 0 4 5 4 10 0 6 -5 10 -11 10 -5 0
-7 -4 -4 -10z"/>
<path d="M1382 1959 c18 -7 33 -7 45 0 14 8 9 10 -27 10 -42 -1 -43 -1 -18
-10z"/>
<path d="M2155 1960 c3 -5 10 -10 16 -10 5 0 9 5 9 10 0 6 -7 10 -16 10 -8 0
-12 -4 -9 -10z"/>
<path d="M2195 1960 c-8 -13 35 -13 55 0 11 7 7 10 -17 10 -17 0 -35 -4 -38
-10z"/>
<path d="M2488 1963 c7 -3 16 -2 19 1 4 3 -2 6 -13 5 -11 0 -14 -3 -6 -6z"/>
<path d="M2488 1944 c-3 -3 -19 -6 -34 -7 -27 -3 -29 -6 -27 -41 2 -22 16 -69
32 -105 17 -36 37 -93 47 -126 26 -96 31 -104 66 -113 73 -19 96 19 55 90 -14
24 -28 61 -32 83 -8 46 -31 113 -57 164 -10 20 -18 41 -18 48 0 13 -22 18 -32
7z"/>
<path d="M1268 1893 c6 -2 12 -14 12 -25 0 -24 24 -19 28 7 2 10 0 15 -6 11
-6 -3 -13 -2 -17 4 -3 5 -12 10 -18 9 -9 0 -9 -2 1 -6z"/>
<path d="M1680 1855 c0 -10 10 -15 33 -15 17 0 43 -3 57 -5 14 -3 0 4 -30 15
-30 10 -56 20 -57 20 -2 0 -3 -7 -3 -15z"/>
<path d="M1816 1861 c-7 -11 28 -21 44 -11 8 5 7 9 -5 14 -23 8 -33 8 -39 -3z"/>
<path d="M1100 1810 c0 -5 12 -10 28 -9 24 0 25 1 7 9 -27 12 -35 12 -35 0z"/>
<path d="M1196 1808 c3 -4 -2 -8 -11 -8 -9 0 -13 -5 -10 -10 5 -8 11 -7 21 1
11 9 21 9 40 0 29 -13 44 -14 44 -3 0 4 -20 12 -44 18 -25 5 -43 6 -40 2z"/>
<path d="M1128 1783 c7 -3 16 -2 19 1 4 3 -2 6 -13 5 -11 0 -14 -3 -6 -6z"/>
<path d="M1410 1765 c0 -18 -12 -19 -28 -3 -9 9 -12 9 -12 -1 0 -7 -5 -9 -11
-5 -8 5 -8 1 0 -14 20 -37 12 -70 -25 -111 -26 -30 -35 -47 -32 -68 3 -25 8
-28 41 -31 65 -5 112 59 124 168 6 58 5 60 -21 70 -35 13 -36 13 -36 -5z"/>
<path d="M1120 1750 c0 -5 12 -10 26 -10 14 0 23 4 19 10 -3 6 -15 10 -26 10
-10 0 -19 -4 -19 -10z"/>
<path d="M1240 1751 c0 -5 11 -11 25 -13 17 -4 25 -1 25 8 0 8 -11 14 -25 14
-14 0 -25 -4 -25 -9z"/>
<path d="M4188 1223 l-3 -48 -73 -1 c-71 0 -101 -12 -88 -33 4 -6 31 -8 70 -5
73 6 84 -2 59 -44 -131 -220 -137 -234 -81 -213 17 6 43 41 82 110 31 56 61
101 65 101 12 0 82 -107 123 -187 13 -26 46 -39 60 -25 7 7 -11 48 -60 129
-39 65 -67 120 -62 123 5 3 34 5 64 4 34 -1 60 4 66 12 15 17 -6 29 -48 25
-40 -3 -112 8 -111 17 1 4 1 24 0 45 -1 34 -3 37 -30 37 -28 0 -30 -2 -33 -47z"/>
<path d="M1047 1253 c-9 -8 -9 -346 -1 -367 5 -12 21 -16 74 -16 124 0 159 28
160 128 0 102 -30 138 -125 144 -49 3 -55 10 -55 71 0 43 -2 47 -23 47 -13 0
-27 -3 -30 -7z m147 -164 c23 -18 26 -27 26 -88 0 -61 -2 -69 -23 -80 -13 -7
-39 -11 -58 -9 l-34 3 -3 84 c-2 46 -1 90 2 98 8 20 60 16 90 -8z"/>
<path d="M2257 1207 c-20 -64 -22 -97 -4 -97 9 0 11 -28 9 -115 l-4 -115 31 0
31 0 0 105 c0 87 -3 105 -15 105 -17 0 -19 12 -6 38 9 17 31 104 31 122 0 6
-13 10 -28 10 -25 0 -30 -5 -45 -53z"/>
<path d="M2377 1254 c-4 -4 -7 -41 -7 -82 0 -63 2 -73 16 -68 9 3 22 6 30 6
10 0 14 14 14 55 l0 56 72 -3 73 -3 3 -50 c4 -49 13 -65 40 -65 10 0 12 19 10
78 l-3 77 -120 3 c-66 2 -124 0 -128 -4z"/>
<path d="M2714 1249 c-8 -14 -18 -314 -10 -343 l6 -26 183 2 c154 3 182 5 182
18 0 13 -25 15 -152 18 l-153 3 0 59 c0 33 3 60 8 61 4 0 70 1 147 2 l140 2 0
105 0 105 -173 1 c-95 1 -175 -2 -178 -7z m286 -78 c0 -27 3 -56 6 -65 5 -14
-9 -16 -114 -16 l-121 0 -3 57 c-3 51 -6 58 -28 64 -14 4 39 7 118 8 l142 1 0
-49z"/>
<path d="M3167 1238 c-3 -13 -12 -48 -21 -78 -15 -53 -15 -56 5 -70 19 -15 19
-18 4 -53 -28 -67 -23 -77 40 -77 44 0 55 3 55 16 0 9 -9 18 -20 21 -23 6 -24
14 -5 68 18 50 18 55 0 55 -21 0 -16 61 10 123 6 14 2 17 -28 17 -28 0 -36 -4
-40 -22z"/>
<path d="M3291 1251 c-28 -18 1 -31 70 -31 39 0 69 -4 69 -10 0 -5 -28 -24
-62 -41 -79 -39 -98 -56 -98 -85 l0 -24 55 27 55 27 48 -18 c81 -32 92 -32 92
-3 0 18 -8 30 -26 39 -33 16 -35 30 -6 43 16 7 22 18 22 41 0 27 -4 32 -31 38
-46 9 -172 7 -188 -3z"/>
<path d="M3639 1253 c0 -5 -1 -39 -1 -77 -1 -66 -2 -69 -30 -78 -36 -13 -36
-36 0 -40 27 -3 27 -4 29 -83 1 -44 2 -86 2 -92 1 -14 95 -19 125 -7 30 12 17
33 -21 36 l-38 3 0 70 0 70 133 3 c120 2 133 4 130 20 -3 15 -18 17 -133 17
l-130 0 -3 83 -3 82 -29 0 c-17 0 -30 -3 -31 -7z"/>
<path d="M3854 1205 c-31 -72 -31 -85 4 -85 24 0 31 7 55 63 15 34 27 65 27
70 0 4 -14 7 -31 7 -27 0 -33 -6 -55 -55z"/>
<path d="M4465 1251 c-15 -25 12 -31 146 -31 76 0 139 -4 139 -8 0 -5 -20 -23
-45 -41 -49 -35 -49 -36 -45 -158 3 -94 -2 -103 -61 -103 -35 0 -49 -4 -49
-14 0 -16 44 -24 115 -22 l50 1 5 121 5 121 63 52 c63 53 76 76 45 84 -39 10
-361 8 -368 -2z"/>
<path d="M2470 1037 c0 -79 -4 -127 -12 -135 -8 -8 -5 -14 15 -23 53 -24 57
-13 57 141 l0 140 -30 0 -30 0 0 -123z"/>
<path d="M1358 1143 c-16 -4 -18 -18 -18 -108 0 -93 2 -107 23 -130 20 -24 30
-27 110 -30 l87 -4 0 140 0 140 -27 -3 -28 -3 -2 -115 -1 -115 -39 -3 c-25 -2
-44 2 -51 11 -6 7 -13 59 -14 117 -3 103 -6 112 -40 103z"/>
<path d="M1626 1143 c-3 -4 -6 -67 -6 -140 l0 -134 28 3 27 3 3 105 c3 117 10
130 69 130 36 0 47 25 16 33 -26 7 -130 6 -137 0z"/>
<path d="M1893 1142 l-53 -3 0 -195 0 -194 30 0 c28 0 29 1 32 57 l3 58 53 7
c29 5 62 13 74 19 39 21 59 116 39 188 -14 50 -69 70 -178 63z m105 -48 c19
-13 22 -24 22 -80 0 -80 -21 -107 -78 -102 l-37 3 -3 89 c-2 65 1 92 10 98 21
13 62 9 86 -8z"/>
<path d="M2384 1052 c-6 -4 -14 -44 -18 -89 -6 -83 -6 -83 18 -83 29 0 32 7
41 94 6 53 5 70 -6 77 -17 11 -21 11 -35 1z"/>
<path d="M2575 1050 c-3 -6 -4 -36 0 -68 10 -96 13 -102 41 -102 25 0 25 0 18
63 -4 34 -10 73 -14 87 -7 26 -34 39 -45 20z"/>
<path d="M3280 1026 c6 -8 28 -16 48 -18 34 -3 37 -6 40 -36 4 -44 -12 -62
-59 -62 -28 0 -39 -4 -39 -15 0 -13 21 -15 125 -15 102 0 125 3 125 14 0 10
-14 16 -42 18 -42 3 -43 4 -46 41 -2 24 -8 37 -18 37 -8 0 -14 5 -14 10 0 6 6
10 13 9 6 -1 33 -1 60 0 35 1 47 5 47 16 0 13 -21 15 -126 15 -109 0 -125 -2
-114 -14z"/>
<path d="M3830 1023 c0 -10 15 -47 33 -83 23 -48 38 -66 55 -68 36 -5 36 22 0
95 -28 57 -38 69 -60 71 -22 3 -28 -1 -28 -15z"/>
<path d="M3137 904 c-15 -15 8 -24 59 -24 41 0 54 4 54 15 0 11 -13 15 -53 15
-30 0 -57 -3 -60 -6z"/>
<path d="M1282 675 c-8 -9 -31 -15 -57 -15 -33 0 -45 -4 -45 -15 0 -8 8 -15
19 -15 22 0 46 -25 33 -34 -12 -7 -64 -106 -57 -107 3 -1 10 -3 15 -4 6 -1 26
-3 45 -4 19 0 35 -5 35 -11 0 -5 -20 -37 -45 -71 -25 -34 -45 -65 -45 -70 0
-5 13 -9 29 -9 25 0 36 9 68 55 21 31 62 88 92 127 47 64 51 73 35 79 -30 12
-32 11 -65 -26 -31 -33 -69 -47 -69 -25 0 24 41 89 60 95 12 4 47 5 78 3 48
-2 57 0 60 15 3 14 -4 17 -42 17 -26 0 -51 6 -60 15 -19 19 -67 19 -84 0z"/>
<path d="M1875 680 c-21 -4 -31 -12 -35 -30 -9 -38 -45 -39 -65 -1 -12 24 -22
31 -46 31 -27 0 -29 -3 -27 -27 3 -24 -1 -28 -24 -31 -22 -3 -28 1 -28 15 0
26 -19 43 -47 43 -18 0 -23 -6 -23 -25 0 -18 -7 -28 -26 -35 -23 -9 -25 -14
-22 -57 3 -46 4 -48 35 -51 29 -3 32 -1 35 30 l3 33 140 0 140 0 3 -33 c3 -29
6 -33 30 -30 25 3 27 7 30 51 3 42 0 49 -17 54 -14 3 -21 15 -23 37 -3 29 -5
31 -33 26z"/>
<path d="M2105 641 c-77 -39 -90 -50 -93 -73 -2 -16 2 -28 8 -28 6 0 46 16 88
36 126 59 112 59 214 9 50 -25 95 -45 99 -45 5 0 9 13 9 29 0 26 -7 33 -57 56
-32 15 -76 36 -97 46 -22 11 -49 18 -60 18 -12 -1 -61 -22 -111 -48z"/>
<path d="M2663 675 c-6 -10 -31 -15 -83 -17 -59 -2 -75 -6 -75 -18 0 -12 27
-16 160 -20 l160 -5 0 -150 0 -150 -122 -3 c-94 -2 -123 0 -125 10 -1 7 -2 60
-4 118 -3 176 1 160 -39 160 l-35 0 2 -162 3 -163 195 0 195 0 3 193 2 192
-79 0 c-61 0 -80 3 -85 15 -7 19 -62 20 -73 0z"/>
<path d="M3480 657 c0 -19 -7 -40 -15 -47 -8 -7 -15 -17 -15 -22 0 -5 7 -16
15 -24 8 -9 15 -33 15 -53 0 -22 -6 -44 -15 -51 -8 -7 -15 -18 -15 -25 0 -7 7
-15 15 -19 10 -4 15 -20 15 -51 0 -31 -5 -47 -15 -51 -8 -4 -15 -15 -15 -26 0
-17 6 -19 48 -16 l47 3 6 80 c3 44 2 101 -2 127 -5 29 -4 59 2 78 6 16 8 38 4
48 -4 9 -8 31 -9 47 -1 26 -5 30 -33 33 -31 3 -33 2 -33 -31z"/>
<path d="M3690 675 c-8 -9 -30 -15 -56 -15 -44 0 -44 0 -44 -35 0 -32 2 -35
30 -35 20 0 30 5 30 15 0 32 132 33 155 1 7 -9 24 -16 39 -16 23 0 26 4 26 35
l0 35 -49 0 c-34 0 -51 4 -55 15 -3 9 -18 15 -34 15 -16 0 -35 -7 -42 -15z"/>
<path d="M1062 648 c3 -28 7 -32 32 -33 24 0 31 5 37 27 9 33 4 38 -38 38 -33
0 -34 -2 -31 -32z"/>
<path d="M2977 674 c-3 -3 -3 -12 0 -20 4 -11 37 -14 164 -14 l159 0 0 -65 0
-65 -155 0 c-181 0 -168 12 -163 -140 l3 -95 200 0 c181 0 200 2 203 17 3 16
-12 18 -160 20 l-163 3 0 75 0 75 155 5 155 5 0 100 0 100 -196 2 c-108 1
-199 0 -202 -3z"/>
<path d="M3945 648 c11 -51 24 -68 50 -68 28 0 30 7 13 61 -10 34 -15 39 -40
39 -28 0 -29 -2 -23 -32z"/>
<path d="M4052 478 l3 -203 30 0 30 0 3 183 c2 135 6 182 15 183 23 1 82 1
119 0 l37 -1 -2 -162 -2 -163 -28 -3 c-20 -3 -27 -8 -25 -20 2 -13 16 -18 55
-20 l51 -3 6 38 c3 21 4 112 2 203 l-3 165 -147 3 -146 3 2 -203z"/>
<path d="M4415 670 c-15 -24 12 -30 150 -30 79 0 146 -4 149 -8 2 -4 -20 -27
-50 -50 l-54 -42 0 -115 0 -115 -27 -1 c-16 -1 -34 -1 -41 0 -15 2 -42 -17
-42 -30 0 -5 41 -9 90 -9 l90 0 0 125 0 125 75 62 c112 91 110 92 -132 96
-129 1 -204 -1 -208 -8z"/>
<path d="M4140 580 c0 -18 6 -20 61 -20 52 0 60 2 57 18 -2 13 -15 18 -61 20
-52 3 -57 1 -57 -18z"/>
<path d="M1062 572 c-18 -3 -22 -8 -16 -20 5 -9 11 -75 14 -147 l5 -130 33 -3
c19 -2 41 -1 49 2 13 6 13 9 -1 31 -12 19 -16 51 -16 143 0 116 -1 120 -22
124 -13 2 -33 2 -46 0z"/>
<path d="M3627 552 c-22 -24 -23 -56 -1 -48 9 3 20 6 24 6 11 0 50 41 50 52 0
16 -57 8 -73 -10z"/>
<path d="M3775 540 c13 -25 22 -30 50 -30 34 0 35 1 23 23 -17 30 -28 37 -61
37 -27 0 -27 0 -12 -30z"/>
<path d="M3941 542 c0 -9 5 -32 12 -51 9 -26 18 -35 40 -37 31 -3 33 4 13 60
-10 31 -19 40 -40 42 -19 2 -26 -2 -25 -14z"/>
<path d="M2070 526 c-6 -6 -10 -14 -10 -18 0 -4 72 -8 160 -8 150 0 181 6 148
27 -18 11 -287 10 -298 -1z"/>
<path d="M2602 523 c3 -16 16 -18 98 -18 82 0 95 2 98 18 3 15 -7 17 -98 17
-91 0 -101 -2 -98 -17z"/>
<path d="M1630 510 c0 -18 7 -20 64 -20 36 0 68 -4 71 -10 3 -5 -2 -21 -11
-35 -16 -24 -20 -25 -121 -25 -94 0 -104 -2 -101 -17 3 -15 18 -19 103 -23
l100 -5 3 -28 c4 -29 -10 -39 -57 -41 -16 -1 -27 -7 -29 -18 -3 -16 6 -18 72
-18 72 0 76 1 77 23 0 12 2 36 2 52 l2 30 75 5 c61 4 75 8 78 23 3 15 -5 17
-67 17 -41 0 -71 4 -71 10 0 6 9 27 20 47 15 28 17 39 7 45 -6 4 -58 8 -114 8
-96 0 -103 -1 -103 -20z"/>
<path d="M4158 513 c-15 -4 -18 -17 -18 -84 l0 -80 58 3 57 3 3 78 c3 74 2 77
-20 77 -13 0 -32 2 -43 4 -11 2 -28 2 -37 -1z m52 -79 c0 -49 -22 -59 -28 -13
-2 13 -10 28 -18 32 -20 11 -8 27 22 27 22 0 24 -4 24 -46z"/>
<path d="M1328 386 c-37 -51 -68 -98 -70 -105 -2 -7 7 -15 19 -17 16 -3 32 7
54 31 18 19 35 35 39 35 3 0 13 -15 21 -32 14 -33 52 -49 70 -31 4 4 -4 41
-18 81 l-26 73 22 22 c28 31 27 37 -11 36 -30 0 -40 -9 -100 -93z"/>
<path d="M3610 460 c0 -18 7 -20 75 -20 41 0 75 -3 75 -7 0 -5 -17 -19 -37
-33 -21 -14 -47 -33 -58 -42 -11 -9 -31 -25 -44 -36 -16 -12 -22 -25 -18 -36
6 -15 22 -16 134 -14 106 3 128 6 128 18 0 12 -17 16 -82 18 -92 3 -105 15
-50 47 58 34 117 87 117 106 0 18 -9 19 -120 19 -113 0 -120 -1 -120 -20z"/>
<path d="M2017 434 c-17 -17 -5 -34 22 -34 38 0 42 -15 20 -71 -10 -26 -15
-50 -12 -53 9 -9 351 -7 357 2 2 4 -4 27 -14 51 -17 37 -23 42 -47 39 -22 -2
-28 -8 -28 -28 0 -25 -1 -25 -90 -25 l-90 0 3 29 c5 49 24 55 165 56 117 0
128 2 125 18 -3 15 -22 17 -204 20 -110 1 -203 -1 -207 -4z"/>
<path d="M3966 428 c-15 -49 -33 -144 -29 -150 7 -12 40 -9 50 5 13 15 33 97
33 131 0 21 -5 26 -25 26 -14 0 -27 -6 -29 -12z"/>
<path d="M2602 403 c3 -15 16 -19 78 -21 88 -3 120 3 120 23 0 12 -18 15 -101
15 -90 0 -100 -2 -97 -17z"/>
<path d="M1473 3 c813 -2 2141 -2 2950 0 810 1 145 2 -1478 2 -1622 0 -2285
-1 -1472 -2z"/>
</g>
</svg>
